<svg width="115" height="115" viewBox="0 0 115 115" fill="none" xmlns="http://www.w3.org/2000/svg">
<path fill-rule="evenodd" clip-rule="evenodd" d="M32.7611 114.583H82.2332C101.586 114.583 114.583 101.008 114.583 80.8087V34.1913C114.583 13.9917 101.586 0.416687 82.2389 0.416687H32.7611C13.414 0.416687 0.416687 13.9917 0.416687 34.1913V80.8087C0.416687 101.008 13.414 114.583 32.7611 114.583ZM37.5143 51.7917C29.6446 51.7917 23.25 45.3885 23.25 37.5209C23.25 29.6532 29.6446 23.25 37.5143 23.25C45.3784 23.25 51.7787 29.6532 51.7787 37.5209C51.7787 45.3885 45.3784 51.7917 37.5143 51.7917ZM102.144 74.248C104.055 79.1493 103.062 85.0402 101.019 89.8944C98.5964 95.6675 93.9584 100.039 88.1149 101.947C85.5203 102.796 82.7995 103.167 80.0844 103.167H31.976C27.1887 103.167 22.9525 102.018 19.4797 99.8795C17.3042 98.5364 16.9196 95.4378 18.5326 93.4289C21.2304 90.0711 23.8939 86.7015 26.5803 83.3024C31.7005 76.7988 35.1503 74.9137 38.9848 76.569C40.5404 77.2524 42.1017 78.2774 43.7089 79.3613C47.9911 82.2715 53.9437 86.2714 61.7847 81.9298C67.1505 78.9245 70.2627 73.7695 72.9729 69.2804L73.0182 69.2053C73.2098 68.8911 73.3997 68.5769 73.5891 68.2636L73.5904 68.2615C74.5012 66.7544 75.3998 65.2675 76.4164 63.8976C77.6907 62.1833 82.4149 56.8226 88.5339 60.6399C92.4315 63.0434 95.7091 66.2952 99.2164 69.7768C100.554 71.1081 101.507 72.6221 102.144 74.248Z" fill="white"/>
</svg>
